# cube.obj — 单位立方体 (±0.5)，6 面各 2 个三角形
v -0.5 -0.5 -0.5
v  0.5 -0.5 -0.5
v  0.5 -0.5  0.5
v -0.5 -0.5  0.5
v -0.5  0.5 -0.5
v  0.5  0.5 -0.5
v  0.5  0.5  0.5
v -0.5  0.5  0.5
vn 0.000000 -1.000000 0.000000
vn 0.000000 1.000000 0.000000
vn 1.000000 0.000000 0.000000
vn -1.000000 0.000000 0.000000
vn 0.000000 0.000000 1.000000
vn 0.000000 0.000000 -1.000000
f 1//1 2//1 3//1
f 1//1 3//1 4//1
f 5//2 7//2 6//2
f 5//2 8//2 7//2
f 2//3 6//3 7//3
f 2//3 7//3 3//3
f 1//4 4//4 8//4
f 1//4 8//4 5//4
f 4//5 3//5 7//5
f 4//5 7//5 8//5
f 1//6 5//6 6//6
f 1//6 6//6 2//6
